<?xml version="1.0" encoding="utf-8"?>
<!-- Generator: Adobe Illustrator 21.0.2, SVG Export Plug-In . SVG Version: 6.00 Build 0)  -->
<svg version="1.1" id="Layer_1" xmlns="http://www.w3.org/2000/svg" xmlns:xlink="http://www.w3.org/1999/xlink" x="0px" y="0px"
	 viewBox="0 0 51 41" enable-background="new 0 0 51 41" xml:space="preserve">
<style type="text/css">
	.st0{stroke:#FFFFFF;fill:#FFFFFF;}
</style>
<g class="st0">
	<path d="M25.4,10"/>
	<path d="M30.1,38h-9.5c-0.6,0-1.1-0.4-1.1-1v-5.6c0-0.6,0.5-1,1.1-1h9.5c0.6,0,1.1,0.4,1.1,1V37C31.1,37.6,30.6,38,30.1,38z
		 M21.6,36.4H29v-3.8h-7.4V36.4z"/>
	<path d="M34.5,38.7H16.1c-0.6,0-1.1-0.5-1.1-1.1c0-0.6,0.5-1.1,1.1-1.1h18.3c0.6,0,1.1,0.5,1.1,1.1C35.5,38.2,35.1,38.7,34.5,38.7z
		"/>
	<path d="M46.5,32.4H4.1c-0.6,0-1.1-0.5-1.1-1.1V4c0-0.6,0.5-1.1,1.1-1.1h42.4c0.6,0,1.1,0.5,1.1,1.1v27.4c0,0.6-0.5,0.4-1.1,0.4		s-1.1-0.5-1.1-1.1V5H5.2v25.3h41.3c0.6,0,1.1,0.5,1.1,1.1S47.1,32.4,46.5,32.4z"/>
	<path d="M 37.2 21.6 L 37.2 21.6 C 38.1 21.4 39.4 20.4 39.1 17.9 C 38.5 15.1 35.2 14.7 33.6 14.5 L 33.4 14.5 C 32.3 14.4 31.4 13.4 31.4 13.4 L 31.4 13.4 L 31.299999999999997 13.4 C 29.5 11.8 28 11.4 27.9 11.4 L 27.799999999999997 11.4 L 27.699999999999996 11.4 C 24.799999999999997 11 22.799999999999997 11.1 21.299999999999997 11.6 C 19.9 12.1 19.099999999999998 12.9 18.4 13.6 L 18.2 13.799999999999999 C 17.7 14.399999999999999 16.4 14.7 14.6 14.899999999999999 C 13.4 15 12.5 16 12.5 17.2 L 12.5 19.2 C 12.5 21.1 13.9 21.7 14.6 21.8 L 14.6 21.8 L 15 21.8 L 15 20.2 L 14.799999999999995 20.2 C 14.599999999999996 20.2 14.099999999999996 20 14.099999999999996 19.2 L 14.099999999999996 17.2 C 14.099999999999996 16.799999999999997 14.399999999999995 16.4 14.799999999999995 16.4 C 16.999999999999996 16.2 18.599999999999994 15.7 19.399999999999995 14.899999999999999 L 19.599999999999994 14.7 C 20.9 13.4 21.999999999999996 12.3 27.499999999999996 13 C 27.699999999999996 13.1 28.799999999999997 13.5 30.199999999999996 14.6 C 30.399999999999995 14.899999999999999 31.599999999999994 16 33.099999999999994 16.2 L 33.3 16.2 C 34.6 16.3 37 16.6 37.4 18.3 C 37.7 19.5 37.2 19.9 37 20 L 35.5 20 L 35.5 21.6 L 37.2 21.6 Z"/>
	<rect x="20.4" y="20" width="9.7" height="1.6"/>
	<path d="M 17.7 24 C 19.4 24 20.8 22.6 20.8 20.9 C 20.8 19.199999999999996 19.4 17.799999999999997 17.7 17.799999999999997 C 16 17.799999999999997 14.6 19.2 14.6 20.9 C 14.6 22.6 16 24 17.7 24 Z M 17.7 19.3 C 18.5 19.3 19.3 20 19.3 20.900000000000002 C 19.3 21.800000000000004 18.6 22.500000000000004 17.7 22.500000000000004 C 16.799999999999997 22.500000000000004 16.099999999999998 21.800000000000004 16.099999999999998 20.900000000000002 C 16.099999999999998 20 16.8 19.3 17.7 19.3 Z"/>
	<path d="M 32.8 24 C 34.5 24 35.9 22.6 35.9 20.9 C 35.9 19.199999999999996 34.5 17.799999999999997 32.8 17.799999999999997 C 31.099999999999994 17.799999999999997 29.699999999999996 19.2 29.699999999999996 20.9 C 29.699999999999996 22.6 31.099999999999998 24 32.8 24 Z M 32.8 19.3 C 33.6 19.3 34.4 20 34.4 20.900000000000002 C 34.4 21.800000000000004 33.699999999999996 22.500000000000004 32.8 22.500000000000004 C 31.899999999999995 22.500000000000004 31.199999999999996 21.800000000000004 31.199999999999996 20.900000000000002 C 31.199999999999996 20 31.9 19.3 32.8 19.3 Z"/>
</g>
</svg>
