<?xml version="1.0" encoding="utf-8"?>
<!-- Generator: Adobe Illustrator 21.0.2, SVG Export Plug-In . SVG Version: 6.00 Build 0)  -->
<svg version="1.1" id="Layer_1" xmlns="http://www.w3.org/2000/svg" xmlns:xlink="http://www.w3.org/1999/xlink" x="0px" y="0px"
	 viewBox="0 0 70 36" enable-background="new 0 0 70 36" xml:space="preserve">
<style type="text/css">
	.st0{stroke:#FFFFFF;fill:#FFFFFF;}
</style>
<g class="st0">
	<path d="M67.1,26.4l-0.4-4.2c0-0.2,0-0.5-0.1-0.7c-0.1-0.8-0.2-1.6-0.5-2.4c-0.1-0.4-0.3-0.7-0.5-0.9c-0.7-1.1-1.8-1.7-2.7-2.1
		c-2.3-1.2-4.6-2.1-7-2.9c-0.9-0.3-1.8-0.6-2.8-0.8c-9.2-6.4-18-9.4-27.7-9.4c-5.7,0-11.9,1-19.7,3.1C5.5,6.1,5.4,6.2,5.3,6.4
		C5,6.9,5.1,7.3,5.2,7.6c0.2,0.5,0.6,0.7,1,0.9C5.9,10,5.6,12,5.3,14.1c-0.3,2.3-0.6,4.6-0.9,6c-0.1,0.7-0.3,1.4-0.4,2.1
		c-0.1,0.6-0.2,1.5-0.2,2c0,1.2,0.1,2.7,0.6,3.5c0.9,1.5,2.7,1.6,3.6,1.7c0.3,0,1.1,0.1,1.7,0.1c0.7,2.5,2.9,4.3,5.4,4.5
		c0.1,0,0.2,0,0.3,0c2.5,0,4.6-1.5,5.5-3.8c4.5,0.1,6.9,0.1,7.2,0.1c1.7,0,3.3,0,4.9,0c5.7,0,10.3-0.1,10.6-0.2l1.6,0
		c0.9,2.3,3.1,3.8,5.5,3.8c2.6,0,4.8-1.7,5.6-4.1l0.8,0c0,0,1.5,0,1.7,0c0.5,0,1,0,1.5-0.1c1.7-0.1,3.3-0.4,4.9-0.8
		c0.6-0.2,1.3-0.4,1.7-1.1C67.2,27.4,67.2,26.8,67.1,26.4z M64.7,20c0.2,0.7,0.3,1.4,0.4,2.3l0,0.1c-0.6-0.3-1.3-0.7-1.7-1.2
		c-0.2-0.2-0.2-0.4-0.2-0.4c0,0,0-0.1,0-0.1c0-0.3,0.4-0.6,0.9-0.6H64.7z M19.6,29.2L19.6,29.2c-0.6,2-2.4,3.4-4.5,3.3
		c-2-0.1-3.7-1.6-4.1-3.7c0-0.1,0-0.2,0-0.3c0-0.3,0-0.5,0-0.8c0.1-2.5,2.2-4.4,4.6-4.3c2.4,0.1,4.3,2.3,4.2,4.8
		C19.8,28.4,19.7,28.8,19.6,29.2z M55,29C55,29,55,29,55,29c-0.5,2-2.2,3.5-4.3,3.5c-1.9,0-3.7-1.4-4.2-3.3
		c-0.1-0.5-0.2-0.9-0.2-1.2c0-2.5,2-4.5,4.4-4.5s4.4,2,4.4,4.5C55.1,28.2,55.1,28.6,55,29z M65.6,27.2c-0.1,0.2-0.6,0.3-0.7,0.3
		c-1.5,0.4-3.1,0.6-4.7,0.7c-0.5,0-1,0-1.4,0.1c-0.1,0-1.7,0-1.7,0l-0.5,0c0-0.1,0-0.3,0-0.4c0-3.4-2.7-6.1-6-6.1
		c-3.3,0-6,2.7-6,6.1c0,0.2,0,0.5,0,0.7l-1.2,0c-0.3,0-4.9,0.2-10.6,0.2c-1.6,0-3.2,0-4.8,0c-0.3,0-2.6-0.1-6.9-0.1
		c0-0.1,0-0.3,0-0.4c0.2-3.3-2.4-6.2-5.7-6.4c-3.3-0.2-6.1,2.4-6.3,5.8c0,0.1,0,0.2,0,0.3c-0.5,0-1.1-0.1-1.3-0.1
		c-1.1-0.1-2-0.3-2.4-1c-0.2-0.3-0.4-1.2-0.3-2.7c0-0.7,0.1-1.3,0.2-1.7c0.2-0.7,0.3-1.4,0.4-2.1c0.3-1.4,0.6-3.7,0.9-6.1
		C7.2,12,7.5,9.6,7.8,8.1c0.1-0.4-0.1-0.8-0.5-0.9l0,0c7.2-1.9,13-2.8,18.2-2.8c9.4,0,17.9,2.9,26.9,9.2c0.1,0.1,0.2,0.1,0.3,0.1
		c1,0.2,1.9,0.5,2.8,0.8c2.3,0.7,4.6,1.7,6.8,2.8c0.6,0.3,1.2,0.6,1.7,1.1c-1.3,0.1-2.3,1-2.3,2.1c0,0.4,0,0.9,0.5,1.6
		c0.7,0.9,2.1,1.7,3.2,2l0.3,2.4C65.6,26.8,65.6,27.1,65.6,27.2z"/>
	<path d="M47.3,15.2H13.2c-0.5,0-0.9-0.2-1.2-0.5c-0.3-0.3-0.5-0.8-0.5-1.3C11.6,12,11.8,10,11.9,9c0.1-0.7,0.7-1.3,1.4-1.4
		c0.7-0.1,7.6-1.4,14.5-1.3c9.2,0.1,15.8,4.3,20,7.4c0.3,0.2,0.4,0.5,0.3,0.9C47.9,15,47.6,15.2,47.3,15.2z M26.9,7.9
		c-6.5,0-12.7,1.1-13.3,1.2c-0.1,0-0.1,0.1-0.1,0.1c-0.1,0.8-0.3,2.7-0.4,4.2c0,0.1,0,0.1,0,0.1c0,0,0.1,0,0.1,0h31.7
		c-4-2.7-9.7-5.6-17.1-5.7C27.5,7.9,27.2,7.9,26.9,7.9z"/>
</g>
</svg>
