<svg xmlns="http://www.w3.org/2000/svg" xmlns:xlink="http://www.w3.org/1999/xlink" preserveAspectRatio="xMidYMid" width="23.968" height="24" viewBox="0 0 23.968 24">
  <defs>
    <style>
      .cls-1 {
        fill: #717171;
        fill-rule: evenodd;
      }
    </style>
  </defs>
  <path d="M22.600,-0.001 L1.355,-0.001 C0.602,-0.001 -0.015,0.616 -0.015,1.370 L-0.015,22.615 C-0.015,23.368 0.602,23.986 1.355,23.986 L22.600,23.986 C23.354,23.986 23.971,23.368 23.971,22.615 L23.971,1.370 C23.971,0.616 23.354,-0.001 22.600,-0.001 ZM20.344,13.454 L17.048,13.454 L17.048,22.272 L13.691,22.272 L13.691,13.454 L11.360,13.454 L11.360,10.279 L13.691,10.279 C13.691,10.279 13.691,8.978 13.691,7.567 C13.691,5.437 15.069,3.480 18.242,3.480 C19.527,3.480 20.478,3.603 20.478,3.603 L20.403,6.568 C20.403,6.568 19.434,6.558 18.376,6.558 C17.232,6.558 17.048,7.086 17.048,7.961 C17.048,7.972 17.048,8.015 17.048,8.110 C17.048,8.355 17.048,8.951 17.048,10.279 L20.494,10.279 L20.344,13.454 Z" class="cls-1"/>
</svg>
