<svg xmlns="http://www.w3.org/2000/svg" xmlns:xlink="http://www.w3.org/1999/xlink" preserveAspectRatio="xMidYMid" width="20" height="18" viewBox="0 0 20 18">
  <defs>
    <style>
      .cls-1 {
        fill: #eee;
        fill-rule: evenodd;
      }
    </style>
  </defs>
  <path d="M19.000,10.000 L1.000,10.000 C0.448,10.000 0.000,9.552 0.000,9.000 C0.000,8.448 0.448,8.000 1.000,8.000 L19.000,8.000 C19.552,8.000 20.000,8.448 20.000,9.000 C20.000,9.552 19.552,10.000 19.000,10.000 ZM19.000,2.000 L1.000,2.000 C0.448,2.000 0.000,1.552 0.000,1.000 C0.000,0.448 0.448,-0.000 1.000,-0.000 L19.000,-0.000 C19.552,-0.000 20.000,0.448 20.000,1.000 C20.000,1.552 19.552,2.000 19.000,2.000 ZM1.000,16.000 L19.000,16.000 C19.552,16.000 20.000,16.448 20.000,17.000 C20.000,17.552 19.552,18.000 19.000,18.000 L1.000,18.000 C0.448,18.000 0.000,17.552 0.000,17.000 C0.000,16.448 0.448,16.000 1.000,16.000 Z" class="cls-1"/>
</svg>