<svg xmlns="http://www.w3.org/2000/svg" xmlns:xlink="http://www.w3.org/1999/xlink" preserveAspectRatio="xMidYMid" width="24" height="24" viewBox="0 0 24 24">
  <defs>
    <style>
      .cls-1 {
        fill: #717171;
        fill-rule: evenodd;
      }
    </style>
  </defs>
  <path d="M19.249,12.002 C19.249,16.009 16.000,19.256 11.994,19.256 C7.987,19.256 4.740,16.009 4.740,12.002 C4.740,11.524 4.787,11.058 4.875,10.606 L-0.004,10.606 L-0.004,20.250 C-0.004,22.320 1.674,23.999 3.745,23.999 L20.243,23.999 C22.313,23.999 23.992,22.320 23.992,20.250 L23.992,10.606 L19.113,10.606 C19.201,11.058 19.249,11.524 19.249,12.002 ZM20.243,0.004 L3.745,0.004 C1.674,0.004 -0.004,1.683 -0.004,3.753 L-0.004,7.816 L6.070,7.816 C7.384,5.960 9.547,4.748 11.994,4.748 C14.441,4.748 16.604,5.960 17.917,7.816 L23.992,7.816 L23.992,3.753 C23.992,1.683 22.313,0.004 20.243,0.004 ZM22.075,4.635 C22.075,5.004 21.775,5.305 21.406,5.305 L19.397,5.305 C19.029,5.305 18.727,5.004 18.727,4.635 L18.727,2.627 C18.727,2.258 19.029,1.957 19.397,1.957 L21.406,1.957 C21.775,1.957 22.075,2.258 22.075,2.627 L22.075,4.635 ZM16.459,12.002 C16.459,9.536 14.460,7.537 11.994,7.537 C9.528,7.537 7.530,9.536 7.530,12.002 C7.530,14.467 9.528,16.466 11.994,16.466 C14.460,16.466 16.459,14.467 16.459,12.002 Z" class="cls-1"/>
</svg>
