<?xml version="1.0" encoding="iso-8859-1"?>
<!-- Generator: Adobe Illustrator 19.0.1, SVG Export Plug-In . SVG Version: 6.00 Build 0)  -->
<svg version="1.1" id="Layer_1" xmlns="http://www.w3.org/2000/svg" xmlns:xlink="http://www.w3.org/1999/xlink" x="0px" y="0px"
	 viewBox="0 0 30 30.002" style="enable-background:new 0 0 30 30.002;" xml:space="preserve">


<g>
	<g>
		<defs>
		<style>
		  .cls-1 {
		    fill: #717171;
		    fill-rule: evenodd;
		  }
		</style>
		</defs>
		<path d="M27.78,0H2.212C0.991,0,0,0.968,0,2.163v25.674c0,1.195,0.991,2.165,2.212,2.165H27.78c1.224,0,2.22-0.97,2.22-2.165
			V2.163C30,0.968,29.004,0,27.78,0z M8.899,25.565H4.444V11.247h4.455V25.565z M6.674,9.292c-1.429,0-2.583-1.156-2.583-2.581
			S5.244,4.13,6.674,4.13c1.423,0,2.578,1.156,2.578,2.581S8.096,9.292,6.674,9.292z M25.565,25.565h-4.449v-6.963
			c0-1.66-0.029-3.796-2.313-3.796c-2.315,0-2.668,1.81-2.668,3.677v7.082H11.69V11.247h4.265v1.957h0.062
			c0.594-1.126,2.044-2.312,4.209-2.312c4.507,0,5.339,2.964,5.339,6.82V25.565z" class="cls-1"/>
	</g>
</g>
</svg>
