<!-- Generator: Adobe Illustrator 21.1.0, SVG Export Plug-In  -->
<svg version="1.1"
	 xmlns="http://www.w3.org/2000/svg" xmlns:xlink="http://www.w3.org/1999/xlink" xmlns:a="http://ns.adobe.com/AdobeSVGViewerExtensions/3.0/"
	 x="0px" y="0px" width="178.625px" height="107.913px" viewBox="0 0 178.625 107.913"
	 style="enable-background:new 0 0 178.625 107.913;" xml:space="preserve">
<style type="text/css">
	.st0{fill:#676767;}
	.st1{fill:none;stroke:#231F20;stroke-width:3.1963;stroke-miterlimit:10;}
	.st2{fill:url(#SVGID_1_);}
	.st3{fill:url(#SVGID_2_);}
</style>
<defs>
</defs>
<g>
	<path class="st0" d="M41.532,39.216l-13.159,29.08h4.293l3.31-7.377h14.566l3.27,7.377h4.455l-13.159-29.08H41.532z M48.875,57.122
		H37.646l5.631-12.567L48.875,57.122z"/>
	<path class="st0" d="M90.382,48.194c0-2.289-0.815-4.365-2.295-5.845c-1.891-1.892-4.831-2.934-8.278-2.934H67.322v28.881h4.118
		V57.451h7.249l8.095,10.846h5.08l-8.699-11.57C87.701,55.64,90.382,52.521,90.382,48.194z M86.224,48.393
		c0,3.194-2.627,5.258-6.694,5.258h-8.09V43.294h8.129C83.799,43.294,86.224,45.124,86.224,48.393z"/>
	<polygon class="st0" points="128.862,62.679 119.254,39.416 114.69,39.416 127.106,68.497 130.536,68.497 142.952,39.416 
		138.506,39.416 	"/>
	<path class="st0" d="M178.594,53.574L178.594,53.574c-0.102-8.359-6.378-14.637-14.68-14.637c-8.276,0-14.76,6.554-14.76,14.919
		v0.08c0,8.46,6.311,14.839,14.68,14.839c8.213,0,14.66-6.452,14.759-14.725l0.032-0.034L178.594,53.574z M174.357,53.856v0.08
		c0,6.249-4.489,10.962-10.442,10.962c-5.999,0-10.522-4.747-10.522-11.121c0-6.249,4.489-10.961,10.442-10.961
		C169.833,42.816,174.357,47.562,174.357,53.856z"/>
	<path class="st0" d="M101.861,39.85c1.329,4.568,2.002,9.314,2.002,14.106c0,4.389-0.567,8.752-1.687,12.97l3.74,0.992
		c1.205-4.541,1.816-9.238,1.816-13.962c0-5.158-0.726-10.268-2.156-15.188L101.861,39.85z"/>
</g>
<path class="st1" d="M103.813,39.7"/>
<path class="st1" d="M105.416,34.698"/>
<g>
	<linearGradient id="SVGID_1_" gradientUnits="userSpaceOnUse" x1="0" y1="53.9563" x2="104.4536" y2="53.9563">
		<stop  offset="0.0554" style="stop-color:#F79229"/>
		<stop  offset="0.9801" style="stop-color:#E98624;stop-opacity:0"/>
	</linearGradient>
	<path class="st2" d="M53.956,107.913C24.205,107.913,0,83.708,0,53.956S24.205,0,53.956,0c22.089,0,41.723,13.229,50.021,33.702
		l-2.988,1.211C93.187,15.663,74.725,3.225,53.956,3.225c-27.973,0-50.731,22.758-50.731,50.731
		c0,27.974,22.758,50.732,50.731,50.732c20.992,0,40.073-13.194,47.48-32.833l3.018,1.139
		C96.576,93.879,76.282,107.913,53.956,107.913z"/>
</g>
</svg>