<svg xmlns="http://www.w3.org/2000/svg" xmlns:xlink="http://www.w3.org/1999/xlink" preserveAspectRatio="xMidYMid" width="25.031" height="25.031" viewBox="0 0 25.031 25.031">
  <defs>
    <style>
      .cls-1 {
        fill: #717171;
        fill-rule: evenodd;
      }
    </style>
  </defs>
  <path d="M11.857,0.001 C12.304,0.001 12.750,0.001 13.197,0.001 C13.212,0.007 13.227,0.016 13.243,0.018 C13.280,0.021 13.316,0.022 13.353,0.023 C13.427,0.025 13.500,0.025 13.572,0.039 C13.589,0.040 13.606,0.040 13.622,0.042 C13.722,0.051 13.822,0.057 13.921,0.069 C14.050,0.084 14.178,0.104 14.307,0.120 C14.472,0.142 14.636,0.171 14.800,0.200 C15.036,0.242 15.270,0.292 15.503,0.349 C16.124,0.502 16.731,0.700 17.322,0.946 C18.569,1.465 19.704,2.167 20.723,3.053 C22.051,4.209 23.094,5.583 23.847,7.175 C24.203,7.927 24.479,8.708 24.677,9.516 C24.744,9.788 24.801,10.062 24.850,10.337 C24.874,10.471 24.895,10.606 24.914,10.742 C24.932,10.874 24.946,11.006 24.962,11.138 C24.983,11.307 24.999,11.476 24.999,11.647 C24.998,11.683 25.002,11.720 25.002,11.757 C25.002,11.787 25.008,11.816 25.020,11.843 C25.020,12.290 25.020,12.737 25.020,13.184 C25.009,13.201 25.004,13.220 25.003,13.240 C25.001,13.307 24.999,13.374 24.997,13.440 C24.995,13.497 24.996,13.554 24.990,13.610 C24.975,13.763 24.959,13.915 24.939,14.067 C24.919,14.229 24.898,14.391 24.872,14.552 C24.824,14.838 24.767,15.122 24.700,15.404 C24.504,16.234 24.225,17.035 23.863,17.806 C23.182,19.259 22.255,20.536 21.085,21.634 C20.108,22.552 19.011,23.294 17.796,23.860 C17.116,24.179 16.411,24.430 15.685,24.620 C15.440,24.683 15.194,24.742 14.945,24.787 C14.817,24.810 14.690,24.836 14.562,24.859 C14.464,24.875 14.365,24.889 14.266,24.902 C14.193,24.912 14.120,24.919 14.048,24.928 C13.939,24.943 13.829,24.954 13.720,24.965 C13.621,24.975 13.521,24.983 13.421,24.989 C13.375,24.993 13.329,25.001 13.282,25.007 C13.266,25.009 13.250,25.014 13.237,25.026 C12.764,25.026 12.290,25.026 11.817,25.026 C11.800,25.012 11.781,25.008 11.761,25.006 C11.691,24.998 11.622,24.991 11.552,24.984 C11.512,24.980 11.472,24.980 11.432,24.976 C11.336,24.966 11.240,24.955 11.144,24.945 C11.065,24.936 10.985,24.930 10.906,24.919 C10.791,24.902 10.675,24.885 10.560,24.866 C10.426,24.844 10.291,24.823 10.157,24.797 C9.899,24.746 9.642,24.690 9.388,24.623 C9.285,24.595 9.182,24.568 9.079,24.540 C9.057,24.534 9.035,24.525 9.013,24.517 C9.002,24.513 8.996,24.495 9.003,24.483 C9.025,24.446 9.048,24.409 9.070,24.372 C9.325,23.958 9.561,23.532 9.768,23.091 C9.977,22.643 10.153,22.183 10.276,21.705 C10.485,20.892 10.693,20.079 10.901,19.265 C10.967,19.004 11.033,18.742 11.100,18.481 C11.103,18.468 11.108,18.457 11.114,18.444 C11.117,18.436 11.125,18.435 11.130,18.441 C11.142,18.457 11.155,18.472 11.165,18.488 C11.254,18.634 11.361,18.766 11.481,18.888 C11.595,19.006 11.719,19.111 11.852,19.207 C12.256,19.501 12.702,19.702 13.184,19.828 C13.339,19.869 13.496,19.898 13.654,19.922 C13.730,19.933 13.806,19.942 13.882,19.946 C14.162,19.958 14.442,19.958 14.721,19.932 C14.841,19.921 14.960,19.908 15.079,19.892 C15.257,19.868 15.433,19.832 15.608,19.791 C16.157,19.663 16.675,19.457 17.164,19.179 C17.731,18.856 18.231,18.450 18.673,17.972 C19.114,17.493 19.480,16.962 19.785,16.389 C20.192,15.622 20.475,14.810 20.662,13.962 C20.731,13.653 20.785,13.342 20.827,13.028 C20.856,12.813 20.880,12.598 20.897,12.382 C20.910,12.216 20.924,12.050 20.925,11.883 C20.925,11.843 20.927,11.803 20.929,11.763 C20.947,11.426 20.937,11.090 20.906,10.754 C20.887,10.541 20.857,10.331 20.817,10.121 C20.728,9.659 20.592,9.210 20.409,8.775 C20.000,7.805 19.401,6.968 18.624,6.259 C17.846,5.549 16.952,5.030 15.960,4.680 C15.642,4.568 15.319,4.477 14.990,4.404 C14.792,4.361 14.593,4.321 14.391,4.296 C14.335,4.289 14.279,4.280 14.223,4.272 C14.141,4.261 14.058,4.248 13.975,4.242 C13.859,4.233 13.743,4.215 13.626,4.215 C13.610,4.215 13.593,4.212 13.577,4.211 C13.520,4.207 13.464,4.202 13.407,4.201 C13.117,4.193 12.827,4.194 12.537,4.201 C12.397,4.205 12.257,4.217 12.118,4.224 C12.101,4.225 12.085,4.228 12.068,4.230 C12.038,4.233 12.008,4.236 11.978,4.238 C11.882,4.247 11.786,4.254 11.690,4.265 C11.564,4.280 11.439,4.298 11.314,4.317 C11.176,4.338 11.037,4.359 10.900,4.385 C10.678,4.428 10.458,4.479 10.238,4.536 C9.637,4.693 9.057,4.907 8.501,5.184 C7.532,5.666 6.683,6.307 5.969,7.123 C5.146,8.064 4.571,9.139 4.261,10.353 C4.206,10.570 4.162,10.788 4.129,11.009 C4.112,11.125 4.097,11.240 4.085,11.356 C4.070,11.499 4.058,11.642 4.054,11.785 C4.048,12.035 4.049,12.285 4.066,12.535 C4.079,12.711 4.094,12.887 4.117,13.062 C4.149,13.306 4.194,13.549 4.253,13.788 C4.341,14.145 4.458,14.491 4.614,14.824 C4.804,15.229 5.043,15.600 5.348,15.927 C5.698,16.304 6.108,16.594 6.583,16.793 C6.626,16.811 6.669,16.828 6.715,16.838 C6.790,16.856 6.867,16.858 6.942,16.838 C7.044,16.811 7.121,16.751 7.178,16.664 C7.218,16.601 7.242,16.532 7.260,16.461 C7.344,16.129 7.429,15.796 7.513,15.463 C7.528,15.406 7.540,15.347 7.546,15.287 C7.557,15.187 7.538,15.095 7.490,15.008 C7.459,14.952 7.421,14.901 7.382,14.851 C7.346,14.807 7.310,14.764 7.274,14.719 C6.998,14.379 6.797,13.998 6.672,13.578 C6.606,13.357 6.561,13.132 6.535,12.903 C6.513,12.703 6.500,12.504 6.501,12.304 C6.502,12.107 6.516,11.912 6.533,11.716 C6.545,11.583 6.562,11.450 6.584,11.319 C6.630,11.039 6.694,10.764 6.779,10.493 C7.016,9.733 7.386,9.044 7.901,8.436 C8.615,7.593 9.503,7.010 10.550,6.665 C10.912,6.545 11.282,6.464 11.658,6.408 C11.717,6.400 11.777,6.392 11.837,6.387 C11.943,6.377 12.049,6.367 12.155,6.358 C12.265,6.350 12.375,6.345 12.485,6.344 C12.641,6.343 12.798,6.345 12.955,6.346 C13.002,6.346 13.048,6.346 13.095,6.351 C13.214,6.366 13.334,6.367 13.453,6.381 C13.579,6.396 13.705,6.410 13.829,6.431 C14.040,6.465 14.248,6.509 14.454,6.566 C14.876,6.682 15.281,6.842 15.661,7.062 C16.122,7.327 16.524,7.664 16.859,8.078 C17.321,8.649 17.608,9.302 17.755,10.019 C17.782,10.152 17.806,10.287 17.820,10.423 C17.831,10.533 17.846,10.641 17.852,10.751 C17.872,11.085 17.861,11.418 17.850,11.751 C17.850,11.764 17.849,11.778 17.848,11.791 C17.838,11.921 17.829,12.051 17.817,12.180 C17.803,12.332 17.790,12.485 17.770,12.637 C17.740,12.865 17.703,13.092 17.659,13.318 C17.582,13.714 17.482,14.104 17.354,14.486 C17.211,14.917 17.035,15.334 16.815,15.732 C16.632,16.063 16.421,16.374 16.171,16.659 C15.962,16.897 15.729,17.111 15.465,17.290 C15.221,17.455 14.960,17.585 14.676,17.670 C14.432,17.742 14.184,17.784 13.929,17.783 C13.912,17.783 13.895,17.783 13.878,17.783 C13.677,17.785 13.480,17.755 13.287,17.700 C12.940,17.601 12.637,17.427 12.387,17.166 C12.100,16.867 11.933,16.510 11.885,16.100 C11.856,15.857 11.873,15.615 11.931,15.375 C11.987,15.146 12.047,14.916 12.111,14.689 C12.224,14.288 12.349,13.891 12.471,13.493 C12.574,13.159 12.677,12.825 12.768,12.487 C12.870,12.110 12.962,11.733 13.009,11.344 C13.023,11.221 13.034,11.099 13.037,10.975 C13.038,10.885 13.032,10.796 13.025,10.706 C13.015,10.569 12.992,10.435 12.958,10.302 C12.904,10.091 12.819,9.892 12.694,9.712 C12.502,9.434 12.245,9.243 11.923,9.138 C11.718,9.070 11.507,9.048 11.293,9.053 C11.229,9.054 11.166,9.056 11.103,9.065 C10.954,9.085 10.809,9.119 10.668,9.172 C10.376,9.282 10.123,9.451 9.900,9.667 C9.720,9.842 9.568,10.040 9.440,10.256 C9.170,10.714 9.020,11.211 8.954,11.737 C8.940,11.849 8.935,11.962 8.926,12.075 C8.911,12.295 8.923,12.515 8.939,12.735 C8.952,12.911 8.977,13.085 9.010,13.259 C9.072,13.591 9.162,13.914 9.296,14.225 C9.313,14.264 9.316,14.300 9.307,14.341 C9.205,14.768 9.104,15.196 9.003,15.624 C8.893,16.087 8.783,16.551 8.674,17.014 C8.571,17.452 8.468,17.890 8.365,18.327 C8.268,18.739 8.170,19.151 8.073,19.562 C7.976,19.971 7.879,20.379 7.784,20.788 C7.740,20.973 7.695,21.157 7.657,21.343 C7.588,21.679 7.545,22.020 7.518,22.362 C7.504,22.528 7.490,22.695 7.490,22.861 C7.490,22.902 7.488,22.942 7.486,22.981 C7.474,23.237 7.474,23.494 7.485,23.751 C7.488,23.801 7.489,23.851 7.490,23.901 C7.490,23.914 7.489,23.928 7.486,23.941 C7.485,23.946 7.477,23.952 7.472,23.951 C7.435,23.947 7.404,23.928 7.371,23.912 C6.016,23.297 4.807,22.468 3.746,21.425 C2.644,20.340 1.771,19.094 1.128,17.687 C0.797,16.960 0.538,16.209 0.353,15.432 C0.292,15.175 0.237,14.918 0.194,14.659 C0.172,14.520 0.149,14.382 0.129,14.244 C0.111,14.112 0.094,13.980 0.080,13.847 C0.068,13.744 0.061,13.642 0.052,13.538 C0.046,13.462 0.041,13.386 0.035,13.309 C0.034,13.290 0.032,13.270 0.029,13.249 C0.025,13.229 0.013,13.214 -0.006,13.203 C-0.006,12.744 -0.006,12.284 -0.006,11.823 C0.015,11.805 0.030,11.783 0.032,11.755 C0.033,11.745 0.034,11.735 0.034,11.725 C0.042,11.562 0.056,11.399 0.074,11.238 C0.090,11.095 0.103,10.952 0.123,10.810 C0.154,10.586 0.190,10.363 0.233,10.140 C0.301,9.783 0.384,9.430 0.483,9.081 C0.743,8.171 1.100,7.301 1.558,6.472 C2.284,5.158 3.216,4.009 4.353,3.028 C5.567,1.980 6.934,1.195 8.450,0.671 C9.242,0.397 10.053,0.206 10.885,0.101 C10.951,0.093 11.017,0.083 11.083,0.076 C11.176,0.065 11.268,0.052 11.361,0.046 C11.497,0.036 11.633,0.019 11.770,0.021 C11.787,0.021 11.803,0.019 11.820,0.015 C11.832,0.012 11.844,0.006 11.857,0.001 Z" class="cls-1"/>
</svg>
