<svg xmlns="http://www.w3.org/2000/svg" xmlns:xlink="http://www.w3.org/1999/xlink" preserveAspectRatio="xMidYMid" width="29.719" height="24.031" viewBox="0 0 29.719 24.031">
  <defs>
    <style>
      .cls-1 {
        fill: #717171;
        fill-rule: evenodd;
      }
    </style>
  </defs>
  <path d="M29.733,2.854 C28.639,3.336 27.463,3.662 26.229,3.809 C27.489,3.059 28.456,1.870 28.912,0.454 C27.733,1.149 26.427,1.654 25.037,1.926 C23.924,0.747 22.339,0.011 20.584,0.011 C17.215,0.011 14.483,2.725 14.483,6.074 C14.483,6.549 14.537,7.012 14.641,7.455 C9.571,7.203 5.075,4.789 2.066,1.121 C1.541,2.016 1.240,3.058 1.240,4.169 C1.240,6.273 2.317,8.128 3.954,9.215 C2.954,9.184 2.013,8.911 1.191,8.457 C1.190,8.482 1.190,8.508 1.190,8.533 C1.190,11.471 3.293,13.921 6.084,14.479 C5.572,14.617 5.033,14.691 4.477,14.691 C4.084,14.691 3.702,14.653 3.329,14.583 C4.105,16.992 6.358,18.745 9.028,18.793 C6.940,20.419 4.310,21.388 1.451,21.388 C0.959,21.388 0.473,21.360 -0.004,21.303 C2.696,23.024 5.903,24.028 9.348,24.028 C20.570,24.028 26.707,14.789 26.707,6.777 C26.707,6.514 26.701,6.252 26.689,5.993 C27.881,5.138 28.915,4.070 29.733,2.854 Z" class="cls-1"/>
</svg>
